<?xml version="1.0" encoding="UTF-8" standalone="no"?>
<!-- Created with Inkscape (http://www.inkscape.org/) -->

<svg
   version="1.1"
   id="svg1"
   width="415.22589"
   height="139.99997"
   viewBox="0 0 415.22588 139.99997"
   xmlns="http://www.w3.org/2000/svg"
   xmlns:svg="http://www.w3.org/2000/svg">
  <defs
     id="defs1">
    <clipPath
       clipPathUnits="userSpaceOnUse"
       id="clipPath18">
      <path
         d="m 5297.0566,894.58264 h 437.5 v 437.49996 h -437.5 z"
         transform="matrix(0.2285714,0,0,0.2285714,-1210.7556,-204.47601)"
         clip-rule="evenodd"
         id="path18" />
    </clipPath>
    <clipPath
       clipPathUnits="userSpaceOnUse"
       id="clipPath20">
      <path
         d="m 5297.0566,894.58264 h 437.5 v 437.49996 h -437.5 z"
         transform="matrix(0.2285714,0,0,0.2285714,-1210.7556,-204.47601)"
         clip-rule="evenodd"
         id="path20" />
    </clipPath>
    <clipPath
       clipPathUnits="userSpaceOnUse"
       id="clipPath22">
      <path
         d="m 5297.0566,894.58264 h 437.5 v 437.49996 h -437.5 z"
         transform="matrix(0.2285714,0,0,0.2285714,-1210.7556,-204.47601)"
         clip-rule="evenodd"
         id="path22" />
    </clipPath>
    <clipPath
       clipPathUnits="userSpaceOnUse"
       id="clipPath24">
      <path
         d="m 5297.0566,894.58264 h 437.5 v 437.49996 h -437.5 z"
         transform="matrix(0.2285714,0,0,0.2285714,-1210.7556,-204.47601)"
         clip-rule="evenodd"
         id="path24" />
    </clipPath>
    <clipPath
       clipPathUnits="userSpaceOnUse"
       id="clipPath26">
      <path
         d="m 5297.0566,894.58264 h 437.5 v 437.49996 h -437.5 z"
         transform="matrix(0.2285714,0,0,0.2285714,-1210.7556,-204.47601)"
         clip-rule="evenodd"
         id="path26" />
    </clipPath>
    <clipPath
       clipPathUnits="userSpaceOnUse"
       id="clipPath28">
      <path
         d="m 5297.0566,894.58264 h 437.5 v 437.49996 h -437.5 z"
         transform="matrix(0.2285714,0,0,0.2285714,-1210.7556,-204.47601)"
         clip-rule="evenodd"
         id="path28" />
    </clipPath>
    <clipPath
       clipPathUnits="userSpaceOnUse"
       id="clipPath30">
      <path
         d="m 5297.0566,894.58264 h 437.5 v 437.49996 h -437.5 z"
         transform="matrix(0.2285714,0,0,0.2285714,-1210.7556,-204.47601)"
         clip-rule="evenodd"
         id="path30" />
    </clipPath>
    <clipPath
       clipPathUnits="userSpaceOnUse"
       id="clipPath32">
      <path
         d="m 5297.0566,894.58264 h 437.5 v 437.49996 h -437.5 z"
         transform="matrix(0.2285714,0,0,0.2285714,-1210.7556,-204.47601)"
         clip-rule="evenodd"
         id="path32" />
    </clipPath>
  </defs>
  <g
     id="g1"
     transform="translate(-1695.0581,-286.26646)">
    <g
       id="g3">
      <path
         id="path17"
         d="m 50,0 c 27.612999,0 50,22.386 50,50 0,27.613998 -22.387001,50 -50,50 C 22.386,100 0,77.613998 0,50 0,22.386002 22.386,0 50,0 Z"
         style="fill:#a28bff;fill-opacity:1;fill-rule:nonzero;stroke:none"
         transform="matrix(1.4000001,0,0,1.4000001,1695.058,286.26646)"
         clip-path="url(#clipPath18)" />
      <path
         id="path19"
         d="M 89.861,19.823 C 89.223,18.982 88.554001,18.167 87.865997,17.368999 86.328995,20.129999 83.384995,22 80,22 75.028999,22 71,17.971001 71,13 71,10.28 72.210999,7.849 74.116997,6.198 73.192993,5.6890001 72.251999,5.2090001 71.293999,4.7579999 69.257996,6.908 68,9.8050003 68,13 c 0,4.032 1.995003,7.591 5.044998,9.767 C 58.717999,25.944 48,38.716999 48,54 c 0,17.673996 14.327,32 32,32 1.739998,0 3.445,-0.143997 5.109001,-0.411003 C 94.299004,76.521996 100,63.928997 100,49.999996 c 0,-9.167999 -2.479004,-17.753002 -6.787003,-25.139999 -1.986,-0.902001 -4.079002,-1.610001 -6.258003,-2.093001 1.129997,-0.805999 2.112999,-1.804 2.905998,-2.944 z"
         style="fill:#34495e;fill-opacity:1;fill-rule:nonzero;stroke:none"
         transform="matrix(1.4000001,0,0,1.4000001,1695.058,286.26646)"
         clip-path="url(#clipPath20)" />
      <path
         id="path21"
         d="M 100,50 C 100,44.757 99.189003,39.703999 97.692001,34.955002 93.052002,30.642002 86.835999,28.000002 80,28.000002 65.640999,28.000002 54,39.641003 54,54 54,68.358994 65.640999,80 80,80 84.349998,80 88.445999,78.927002 92.048996,77.038002 97.072998,69.241005 100,59.965004 100,50 Z"
         style="fill:#ecf0f1;fill-opacity:1;fill-rule:nonzero;stroke:none"
         transform="matrix(1.4000001,0,0,1.4000001,1695.058,286.26646)"
         clip-path="url(#clipPath22)" />
      <path
         id="path23"
         d="m 98.476997,37.722 c -0.236,-0.932999 -0.497001,-1.855999 -0.783996,-2.766998 -4.640999,-4.313 -10.857002,-6.955 -17.693001,-6.955 -14.359001,0 -26,11.641001 -26,25.999998 0,0.334999 0.014,0.667999 0.025,1 C 54.553001,41.105 65.977005,30 80,30 c 7.230003,0 13.764999,2.957001 18.476997,7.722 z"
         style="fill:#d4d8d9;fill-opacity:1;fill-rule:nonzero;stroke:none"
         transform="matrix(1.4000001,0,0,1.4000001,1695.058,286.26646)"
         clip-path="url(#clipPath24)" />
      <path
         id="path25"
         d="M 82,50.555 V 36 c 0,-1.104 -0.896004,-2 -2,-2 -1.103996,0 -2,0.896 -2,2 v 14.555 c -1.189003,0.693001 -2,1.969002 -2,3.445 0,2.209 1.791,4 4,4 2.209,0 4,-1.791 4,-4 0,-1.477001 -0.810997,-2.751999 -2,-3.445 z"
         style="fill:#6200ee;fill-opacity:1;fill-rule:nonzero;stroke:none"
         transform="matrix(1.4000001,0,0,1.4000001,1695.058,286.26646)"
         clip-path="url(#clipPath26)" />
      <path
         id="path27"
         d="m 24,35 h 20 c 1.104,0 2,-0.895 2,-2 0,-1.104 -0.896,-2 -2,-2 H 24 c -1.104,0 -2,0.896 -2,2 0,1.105 0.896,2 2,2 z M 14,45 h 20 c 1.104,0 2,-0.895 2,-2 0,-1.104 -0.896,-2 -2,-2 H 14 c -1.104,0 -2,0.896 -2,2 0,1.105 0.896,2 2,2 z m 22,18 c 0,-1.104 -0.896,-2 -2,-2 H 14 c -1.104,0 -2,0.896 -2,2 0,1.104004 0.896,2 2,2 h 20 c 1.104,0 2,-0.896004 2,-2 z m 9,8 H 25 c -1.104,0 -2,0.896004 -2,2 0,1.103996 0.896,2 2,2 h 20 c 1.104,0 2,-0.896004 2,-2 0,-1.103996 -0.896,-2 -2,-2 z M 17,51 c -1.104,0 -2,0.896 -2,2 0,1.105 0.896,2 2,2 h 22 c 1.104,0 2,-0.895 2,-2 0,-1.104 -0.896,-2 -2,-2 z"
         style="fill:#ffffff;fill-opacity:1;fill-rule:nonzero;stroke:none"
         transform="matrix(1.4000001,0,0,1.4000001,1695.058,286.26646)"
         clip-path="url(#clipPath28)" />
      <path
         id="path29"
         d="m 83,14 h -6 v 7.477001 c 0.939003,0.333 1.945999,0.523001 3,0.523001 1.054001,0 2.060997,-0.190001 3,-0.523001 v -7.477 z"
         style="fill:#2c3e50;fill-opacity:1;fill-rule:nonzero;stroke:none"
         transform="matrix(1.4000001,0,0,1.4000001,1695.058,286.26646)"
         clip-path="url(#clipPath30)" />
      <path
         id="path31"
         d="M 85.711998,15.019 C 83.937996,13.208 82.030998,11.526 80,10 h -4 c -1.103996,0 -2,0.896 -2,2 v 2 c 0,1.105 0.896004,2 2,2 h 8 c 0.730003,0 1.362999,-0.396 1.711998,-0.981 z"
         style="fill:#34495e;fill-opacity:1;fill-rule:nonzero;stroke:none"
         transform="matrix(1.4000001,0,0,1.4000001,1695.058,286.26646)"
         clip-path="url(#clipPath32)" />
    </g>
    <g
       id="g2"
       transform="translate(3.0419215,-2.4335373)">
      <g
         id="g36"
         transform="translate(215.97642,-114.98463)">
        <g
           id="g37">
          <path
             id="path37"
             d="M 9.0627249,-0.00145079 V -24.423327 H 0.59397456 v -2.4375 H 20.437725 v 2.4375 h -8.46875 v 24.42187621 z m 0,0"
             style="fill:#a28bff;fill-opacity:1;fill-rule:nonzero;stroke:none"
             aria-label="T"
             transform="translate(1638.8006,492.56004)" />
        </g>
        <path
           id="path38"
           d="M 3.9391462,-0.00145079 V -18.438952 H 6.6266463 V -0.00145079 Z M 5.2828963,-22.017077 c -0.6054688,0 -1.1093751,-0.207031 -1.5156251,-0.625 -0.40625,-0.425781 -0.609375,-0.941406 -0.609375,-1.546875 0,-0.570312 0.203125,-1.0625 0.609375,-1.46875 0.40625,-0.414062 0.9101563,-0.625 1.5156251,-0.625 0.5703125,0 1.0664063,0.210938 1.484375,0.625 0.4257813,0.40625 0.640625,0.914063 0.640625,1.515625 0,0.574219 -0.2148437,1.074219 -0.640625,1.5 -0.4179687,0.417969 -0.9140625,0.625 -1.484375,0.625 z m 30.5156267,2.953125 c 1.707031,0 3.125,0.601563 4.25,1.796875 1.132812,1.187501 1.703125,2.835938 1.703125,4.937501 V -0.00145079 H 39.079773 V -11.142076 c 0,-1.945313 -0.371094,-3.347657 -1.109375,-4.203125 -0.742188,-0.851563 -1.699219,-1.28125 -2.875,-1.28125 -1.449219,0 -2.574219,0.558593 -3.375001,1.671875 -0.804687,1.117187 -1.265625,2.632812 -1.390625,4.546875 v 10.40625021 h -2.6875 V -11.142076 c 0,-1.945313 -0.371094,-3.347657 -1.109375,-4.203125 -0.730469,-0.851563 -1.683594,-1.28125 -2.859375,-1.28125 -1.605469,0 -2.808594,0.671875 -3.609375,2.015625 -0.804688,1.335937 -1.203125,3.132812 -1.203125,5.3906248 v 9.21875041 H 16.189147 V -18.438952 h 2.671875 v 2.875001 c 0.601562,-1.125 1.367187,-1.988282 2.296875,-2.593751 0.9375,-0.601562 2.007813,-0.90625 3.21875,-0.90625 1.34375,0 2.507813,0.359375 3.5,1.078125 1,0.71875 1.695313,1.750001 2.09375,3.093751 0.582032,-1.3125 1.367188,-2.332032 2.359375,-3.062501 1,-0.738281 2.15625,-1.109375 3.468751,-1.109375 z m 21.8125,0 c 1.656251,0 3.148438,0.40625 4.484376,1.21875 1.34375,0.8125 2.394531,1.921876 3.15625,3.328126 0.757812,1.40625 1.140625,2.976562 1.140625,4.7031248 0,0.5 -0.01172,0.8828125 -0.03125,1.140625 H 51.189148 c 0.101563,1.8984376 0.71875,3.5156252 1.84375,4.8593752 1.132813,1.3359376 2.675782,2.0000001 4.625,2.0000001 1.570313,0 2.875001,-0.2890625 3.906251,-0.875 1.039062,-0.59375 1.878906,-1.4140626 2.515625,-2.4687501 l 2.125,1.4218751 c -0.875,1.3671875 -2.023438,2.4335938 -3.4375,3.20312508 -1.417969,0.76953129 -3.09375,1.15625005 -5.031251,1.15625005 -1.792968,0 -3.386718,-0.41796876 -4.78125,-1.25000005 -1.386719,-0.84375008 -2.476562,-2.00781258 -3.265625,-3.50000018 -0.78125,-1.5 -1.171875,-3.1953126 -1.171875,-5.0937502 0,-1.8828128 0.382813,-3.5781248 1.15625,-5.0781248 0.769531,-1.5 1.84375,-2.664063 3.21875,-3.500001 1.382813,-0.84375 2.957032,-1.265625 4.71875,-1.265625 z m 6.109376,8.187501 c -0.261719,-1.914063 -0.90625,-3.351563 -1.9375,-4.3125 -1.023438,-0.957032 -2.414063,-1.4375 -4.171876,-1.4375 -1.710937,0 -3.109375,0.546875 -4.203125,1.640625 -1.085937,1.085937 -1.773437,2.453125 -2.0625,4.109375 z M 91.993837,-0.00145079 V -24.423327 h -8.46875 v -2.4375 h 19.843753 v 2.4375 H 94.900087 V -0.00145079 Z M 118.6579,-19.063952 c 0.625,0 1.22656,0.08984 1.8125,0.265625 v 2.453126 c -0.55469,-0.257813 -1.15625,-0.390625 -1.8125,-0.390625 -1.13672,0 -2.1875,0.320312 -3.15625,0.953125 -0.96875,0.625 -1.75,1.539062 -2.34375,2.734375 -0.59375,1.1875 -0.89062,2.59375 -0.89062,4.2187498 v 8.82812541 H 109.5954 V -18.438952 h 2.67188 v 3.703126 c 0.70703,-1.363282 1.60937,-2.425782 2.70312,-3.187501 1.09375,-0.757812 2.32031,-1.140625 3.6875,-1.140625 z m 24.5625,0.625 v 18.43750121 h -2.67187 V -2.7202009 c -0.76172,1.0546875 -1.69532,1.87500007 -2.79688,2.4687501 -1.10547,0.58203127 -2.3125,0.87500003 -3.625,0.87500003 -1.76172,0 -3.33984,-0.41796876 -4.73437,-1.25000005 -1.38672,-0.84375008 -2.47657,-2.00781258 -3.26563,-3.50000018 -0.78125,-1.5 -1.17187,-3.2070313 -1.17187,-5.1250002 0,-1.8945318 0.38281,-3.5820318 1.15625,-5.0624998 0.76953,-1.488282 1.84375,-2.648438 3.21875,-3.484376 1.38281,-0.84375 2.95703,-1.265625 4.71875,-1.265625 1.34375,0 2.57031,0.296875 3.6875,0.890625 1.11328,0.585938 2.05078,1.417969 2.8125,2.500001 v -2.765626 z m -9.17187,16.6250011 c 1.25781,0 2.3789,-0.3125 3.35937,-0.9375 0.98828,-0.6328125 1.75781,-1.5156251 2.3125,-2.6406251 0.55078,-1.1328126 0.82813,-2.4101564 0.82813,-3.8281252 0,-1.4140628 -0.27735,-2.6874998 -0.82813,-3.8124998 -0.55469,-1.132813 -1.32422,-2.015625 -2.3125,-2.640625 -0.98047,-0.632813 -2.10156,-0.953125 -3.35937,-0.953125 -1.23047,0 -2.33594,0.320312 -3.3125,0.953125 -0.96875,0.625 -1.73047,1.496093 -2.28125,2.609375 -0.55469,1.117187 -0.82813,2.386719 -0.82813,3.8124998 0,1.4375001 0.27344,2.7265626 0.82813,3.8593752 0.55078,1.125 1.3125,2.0078126 2.28125,2.6406251 0.97656,0.625 2.08203,0.9375 3.3125,0.9375 z m 25.28906,2.43750013 c -1.79297,0 -3.38672,-0.41796876 -4.78125,-1.25000005 -1.38672,-0.84375008 -2.47656,-2.00781258 -3.26563,-3.50000018 -0.78125,-1.5 -1.17187,-3.1953126 -1.17187,-5.0937502 0,-1.8828128 0.38281,-3.5781248 1.15625,-5.0781248 0.76953,-1.5 1.85156,-2.664063 3.25,-3.500001 1.39453,-0.84375 2.97266,-1.265625 4.73438,-1.265625 1.48828,0 2.78906,0.324219 3.90625,0.96875 1.125,0.636719 2.14453,1.546876 3.0625,2.734376 l -1.96875,1.53125 c -1.29297,-1.863282 -2.96094,-2.796875 -5,-2.796875 -1.24219,0 -2.35547,0.320312 -3.34375,0.953125 -0.98047,0.625 -1.7461,1.507812 -2.29688,2.640625 -0.55469,1.125 -0.82813,2.398437 -0.82813,3.8124998 0,1.4179688 0.27344,2.6953126 0.82813,3.8281252 0.55078,1.125 1.31641,2.0078126 2.29688,2.6406251 0.98828,0.625 2.10156,0.9375 3.34375,0.9375 1.25781,0 2.29687,-0.2109375 3.10937,-0.640625 0.8125,-0.4375 1.54688,-1.078125 2.20313,-1.9218751 l 2.07812,1.4531251 c -0.86719,1.0859375 -1.93359,1.94921882 -3.20312,2.59375009 -1.27344,0.63281253 -2.64063,0.95312504 -4.10938,0.95312504 z m 25.30859,-0.62500002 -6.45312,-9.50000041 -2.25,2.1718751 v 7.32812531 h -2.67188 V -28.595202 h 2.67188 v 17.875001 l 8.07812,-7.718751 h 3.46876 l -7.45313,7.171876 7.60938,11.26562521 z M 201.54072,-19.063952 c 1.65625,0 3.14843,0.40625 4.48437,1.21875 1.34375,0.8125 2.39453,1.921876 3.15625,3.328126 0.75781,1.40625 1.14063,2.976562 1.14063,4.7031248 0,0.5 -0.0117,0.8828125 -0.0312,1.140625 h -15.17188 c 0.10156,1.8984376 0.71875,3.5156252 1.84375,4.8593752 1.13281,1.3359376 2.67578,2.0000001 4.625,2.0000001 1.57031,0 2.875,-0.2890625 3.90625,-0.875 1.03906,-0.59375 1.87891,-1.4140626 2.51563,-2.4687501 l 2.125,1.4218751 c -0.875,1.3671875 -2.02344,2.4335938 -3.4375,3.20312508 -1.41797,0.76953129 -3.09375,1.15625005 -5.03125,1.15625005 -1.79297,0 -3.38672,-0.41796876 -4.78125,-1.25000005 -1.38672,-0.84375008 -2.47657,-2.00781258 -3.26563,-3.50000018 -0.78125,-1.5 -1.17187,-3.1953126 -1.17187,-5.0937502 0,-1.8828128 0.38281,-3.5781248 1.15625,-5.0781248 0.76953,-1.5 1.84375,-2.664063 3.21875,-3.500001 1.38281,-0.84375 2.95703,-1.265625 4.71875,-1.265625 z m 6.10937,8.187501 c -0.26172,-1.914063 -0.90625,-3.351563 -1.9375,-4.3125 -1.02344,-0.957032 -2.41406,-1.4375 -4.17187,-1.4375 -1.71094,0 -3.10938,0.546875 -4.20313,1.640625 -1.08594,1.085937 -1.77344,2.453125 -2.0625,4.109375 z m 18.82422,-8.187501 c 0.625,0 1.22656,0.08984 1.8125,0.265625 v 2.453126 c -0.55469,-0.257813 -1.15625,-0.390625 -1.8125,-0.390625 -1.13672,0 -2.1875,0.320312 -3.15625,0.953125 -0.96875,0.625 -1.75,1.539062 -2.34375,2.734375 -0.59375,1.1875 -0.89062,2.59375 -0.89062,4.2187498 v 8.82812541 h -2.67188 V -18.438952 h 2.67188 v 3.703126 c 0.70703,-1.363282 1.60937,-2.425782 2.70312,-3.187501 1.09375,-0.757812 2.32031,-1.140625 3.6875,-1.140625 z m 0,0"
           style="fill:#a28bff;fill-opacity:1;fill-rule:nonzero;stroke:none"
           aria-label="ime Tracker"
           transform="translate(1662.9788,492.56004)" />
      </g>
    </g>
  </g>
</svg>
